<svg width="200" height="200" viewBox="0 0 200 200" fill="none" xmlns="http://www.w3.org/2000/svg">
  <circle cx="100" cy="100" r="95" fill="#e67e22" />
  <circle cx="100" cy="100" r="85" fill="white" />
  <path d="M50 70 L50 130 L60 130 L60 70 Z" fill="#e67e22" />
  <path d="M70 70 C70 70, 90 70, 100 80 C110 90, 110 110, 100 120 C90 130, 70 130, 70 130 L70 120 C70 120, 85 120, 92 112 C99 104, 99 96, 92 88 C85 80, 70 80, 70 80 Z" fill="#e67e22" />
  <path d="M120 70 L120 130 L130 130 L130 105 L145 130 L155 130 L135 100 L155 70 L145 70 L130 95 L130 70 Z" fill="#e67e22" />
  <path d="M40 140 L160 140 L160 150 L40 150 Z" fill="#e67e22" />
</svg> 